<svg width="557" height="284" viewBox="0 0 557 284" fill="none" xmlns="http://www.w3.org/2000/svg">
<path d="M455.067 265.173L450.593 264.137C446.593 263.21 442.572 265.725 441.65 269.746C440.728 273.762 443.238 277.772 447.259 278.689L451.65 279.71C452.228 279.845 452.801 279.908 453.364 279.908C456.749 279.908 459.817 277.59 460.624 274.147C461.572 270.137 459.082 266.116 455.067 265.173Z" fill="#4F46E5"/>
<path d="M429.213 259.573L428.318 259.396C424.25 258.589 420.344 261.235 419.547 265.271C418.75 269.318 421.375 273.245 425.422 274.042L426.281 274.214C426.776 274.313 427.271 274.36 427.755 274.36C431.239 274.36 434.359 271.907 435.068 268.36C435.88 264.318 433.255 260.386 429.213 259.573Z" fill="#4F46E5"/>
<path d="M548.8 255.307C534.915 252.619 520.576 250.38 505.868 248.437C500.79 247.765 495.79 247.166 490.785 246.494V246.567C483.317 245.744 475.775 244.926 468.16 244.255C468.16 244.255 448.447 242.76 439.863 242.166H439.79H439.118C438.149 242.093 437.326 242.015 436.727 242.015H436.503C386.102 239.255 337.123 240.223 292.317 243.135C240.645 240.447 191.817 241.343 150.077 243.656C150.077 243.656 133.498 243.953 133.353 244.703C127.451 245.15 121.707 245.598 116.181 246.046L101.249 247.39L83.0299 249.109C82.8788 249.109 82.733 249.036 82.582 249.109C80.4153 249.333 78.3268 249.557 76.233 249.781L75.5612 249.854C64.2852 251.046 54.0558 252.317 45.2492 253.515V253.14C35.5409 254.557 30.3172 255.531 30.3172 255.531C15.4572 257.77 6.86915 259.338 6.72381 259.338C2.69261 260.083 0.00501388 263.968 0.749814 267.999C1.42169 271.661 4.55716 274.125 8.06756 274.125C8.51548 274.125 9.03631 274.125 9.48423 274.052C9.70819 273.979 35.0202 269.349 75.6402 264.869L109.318 261.583C124.776 260.239 141.796 259.047 160.088 258.151C159.119 258.302 158.073 258.448 157.177 258.599C153.073 259.271 150.307 263.078 150.979 267.187C151.578 270.843 154.713 273.458 158.37 273.458C158.745 273.458 159.114 273.385 159.562 273.307C195.177 267.484 241.026 261.51 292.396 258.072C329.208 260.015 367.36 263.822 405.292 270.317C405.74 270.39 406.115 270.468 406.562 270.468C410.146 270.468 413.281 267.854 413.88 264.27C414.552 260.312 412.016 256.656 408.203 255.76C418.359 256.057 428.588 256.505 438.891 257.104C438.891 257.104 462.636 258.744 466.818 259.119C494.37 261.583 521.026 265.239 546.036 269.947C546.484 270.02 547.005 270.098 547.453 270.098C550.964 270.098 554.099 267.562 554.771 263.973C555.521 259.937 552.828 256.057 548.797 255.307H548.8Z" fill="#4F46E5"/>
<path d="M138.373 261.787L135.722 262.266C131.665 263 128.972 266.891 129.712 270.948C130.363 274.552 133.509 277.078 137.05 277.078C137.493 277.078 137.941 277.042 138.394 276.959L141.014 276.49C145.071 275.761 147.774 271.875 147.045 267.818C146.316 263.755 142.415 261.047 138.373 261.787Z" fill="#4F46E5"/>
<path d="M114.307 266.347C105.468 268.133 100.676 269.237 100.676 269.237C96.6604 270.164 94.1552 274.18 95.0822 278.196C95.8791 281.649 98.9519 283.982 102.348 283.982C102.905 283.982 103.473 283.92 104.035 283.795C104.093 283.779 108.738 282.706 117.264 280.982C121.306 280.164 123.921 276.227 123.103 272.185C122.285 268.143 118.374 265.529 114.307 266.347Z" fill="#4F46E5"/>
<path d="M121.053 48.7466C127.637 42.1893 132.303 42.1893 138.887 48.7466C140.288 50.1373 142.178 50.9237 144.152 50.9237C148.376 50.9237 151.704 48.9133 154.647 47.1425C159.642 44.1373 161.496 43.0228 167.256 48.7466C168.715 50.1997 170.616 50.9237 172.522 50.9237C174.439 50.9237 176.355 50.1893 177.814 48.7258C180.725 45.804 180.715 41.0748 177.793 38.1685C163.777 24.2045 152.408 31.0644 146.938 34.356C146.615 34.5539 146.24 34.7778 145.865 35.0018C134.391 25.9654 121.709 27.0174 110.516 38.1685C107.594 41.0799 107.584 45.8039 110.495 48.7258C113.407 51.6529 118.137 51.6529 121.053 48.7466Z" fill="#4F46E5"/>
<path d="M199.067 20.5067C205.64 13.9493 210.301 13.9441 216.9 20.5067C218.296 21.8973 220.192 22.6837 222.166 22.6837C226.39 22.6837 229.723 20.6733 232.66 18.9025C237.645 15.8973 239.509 14.7775 245.27 20.5067C246.728 21.9597 248.629 22.6837 250.535 22.6837C252.452 22.6837 254.369 21.9493 255.827 20.4858C258.739 17.564 258.728 12.8348 255.806 9.92851C241.79 -4.02483 230.421 2.82439 224.952 6.11599C224.629 6.31391 224.248 6.53785 223.879 6.7618C212.399 -2.2746 199.712 -1.2174 188.529 9.92847C185.607 12.8399 185.597 17.5639 188.508 20.4858C191.42 23.4077 196.145 23.4181 199.067 20.5067Z" fill="#4F46E5"/>
<path d="M410.413 28.9733C415.07 24.3379 417.908 24.3327 422.575 28.9733C423.976 30.364 425.867 31.1504 427.84 31.1504C431.637 31.1504 434.616 29.3535 437.007 27.9108C440.882 25.5671 441.481 25.2077 445.262 28.9733C448.189 31.8848 452.913 31.8744 455.82 28.9525C458.731 26.0306 458.721 21.3014 455.799 18.3951C443.762 6.40033 433.627 12.5097 429.293 15.1243C419.752 8.17648 409.033 9.2754 399.872 18.3951C396.95 21.3066 396.94 26.0306 399.851 28.9525C402.768 31.8795 407.491 31.89 410.413 28.9733Z" fill="#4F46E5"/>
<path d="M443.96 66C436.033 60.6978 427.211 61.8125 419.637 69.3489C416.715 72.2604 416.705 76.9844 419.616 79.9062C422.528 82.8281 427.252 82.8437 430.174 79.9271C433.205 76.9063 434.434 76.9063 437.471 79.9271C438.867 81.3177 440.762 82.1041 442.736 82.1041C446.163 82.1041 448.82 80.5 450.762 79.3281C451.45 78.9114 452.606 78.2135 452.908 78.151C452.913 78.1562 453.715 78.3542 455.299 79.927C458.221 82.8385 462.95 82.8281 465.856 79.9062C468.768 76.9843 468.757 72.2551 465.835 69.3489C456.309 59.8541 447.887 63.7292 443.96 66Z" fill="#4F46E5"/>
<path d="M492.267 55.1733C494.173 55.1733 496.074 54.4493 497.532 52.9962C504.09 46.4754 508.949 46.4858 515.491 52.9962C516.892 54.3869 518.783 55.1733 520.756 55.1733C524.991 55.1733 528.335 53.1577 531.283 51.3816C536.303 48.3504 538.178 47.2201 543.98 52.9961C546.902 55.9076 551.631 55.8972 554.538 52.9753C557.449 50.0534 557.439 45.3242 554.517 42.418C540.444 28.4073 529.044 35.2929 523.569 38.595C523.241 38.7981 522.855 39.0273 522.47 39.2565C510.97 30.1887 498.23 31.2357 486.997 42.4231C484.075 45.3346 484.064 50.0586 486.976 52.9805C488.439 54.4441 490.35 55.1733 492.267 55.1733Z" fill="#4F46E5"/>
<path d="M218.72 58.3867C210.423 52.7148 201.179 53.8345 193.261 61.72C190.339 64.6315 190.329 69.3555 193.241 72.2773C196.152 75.1992 200.881 75.2148 203.798 72.2982C207.209 68.9023 208.772 68.9127 212.173 72.2982C213.574 73.6888 215.464 74.4752 217.438 74.4752C220.944 74.4752 223.704 72.8138 225.72 71.6003C226.47 71.1472 227.865 70.3086 228.293 70.293C228.298 70.293 229.209 70.4336 231.084 72.3034C232.543 73.7565 234.444 74.4805 236.35 74.4805C238.267 74.4805 240.183 73.7461 241.642 72.2826C244.553 69.3607 244.543 64.6315 241.621 61.7253C231.511 51.6471 222.897 55.9179 218.72 58.3867Z" fill="#4F46E5"/>
<path d="M96.7333 242.093V168.323C96.7333 164.219 93.374 160.854 89.2645 160.854H40.8058C32.5194 160.854 25.7952 154.208 25.7952 145.922L25.8004 67.0725C25.8004 63.8642 27.1441 60.7236 29.5348 58.5621C31.5504 56.6194 34.165 55.6506 36.6285 55.7236C39.1649 55.8746 41.5556 56.9944 43.3473 58.708C45.29 60.6507 46.3317 63.1872 46.3317 65.9528V125.983C46.3317 130.088 49.691 133.452 53.8005 133.452H89.2698C93.374 133.452 96.7386 130.093 96.7386 125.983V97.7594C96.7386 82.3794 109.28 69.9101 124.739 69.9101C132.207 69.9101 139.223 72.7487 144.525 77.9727C149.827 83.2748 152.739 90.2904 152.739 97.7593V154.207C152.739 158.311 156.025 161.676 160.208 161.676H193.806C197.91 161.676 201.275 158.317 201.275 154.207V103.062C201.275 101.421 201.947 99.7756 203.218 98.5098C204.187 97.5411 205.754 96.4213 208.218 96.6453C211.577 96.8693 214.265 100.078 214.265 103.812V162.427C214.265 170.192 207.916 176.463 200.077 176.463H160.207C156.025 176.463 152.739 179.822 152.739 183.931V234.557C134.739 236.791 116.072 239.328 96.7333 242.093ZM337.093 57.5867C343.963 48.1804 356.656 42.576 370.995 42.576C385.333 42.576 398.025 48.1749 404.968 57.5867L424.749 84.4667C424.228 84.5396 423.781 84.3937 423.333 84.4667C415.119 85.5135 409.969 89.6958 405.859 93.1281C401.979 96.2636 399.588 98.0552 395.854 98.3573C393.542 98.4302 392.792 98.0604 390.552 96.5656C387.568 94.6177 383.463 91.9301 376.068 91.4093C366.287 90.6645 358.969 94.0238 353.147 96.7114C347.917 99.1021 345.756 99.9197 343.886 99.024C343.511 98.8729 343.511 98.8729 342.766 97.8313C341.871 96.7115 340.751 95.1438 338.735 93.3521L338.063 92.6802C334.704 89.5447 328.355 83.6438 318.126 83.3469L337.093 57.5867ZM211.427 228.053L304.161 102.241C304.609 102.168 305.13 102.09 305.578 101.866C318.495 94.8455 323.275 99.3299 327.829 103.585L328.652 104.33C329.698 105.299 330.292 106.122 330.818 106.793C332.016 108.434 333.735 110.752 337.391 112.471C340.152 113.814 342.844 114.335 345.381 114.335C350.61 114.335 355.313 112.168 359.417 110.231C364.344 107.991 369.047 105.825 374.875 106.273C378.532 106.569 380.105 107.543 382.344 109.033C385.407 111.049 389.589 113.736 396.907 113.215C405.568 112.616 410.943 108.215 415.276 104.705C419.084 101.569 421.474 99.7778 425.13 99.3299C429.24 98.8091 433.865 100.377 438.87 103.663L531.532 229.403C480.302 220.882 378.078 211.773 211.425 228.054L211.427 228.053Z" fill="#4F46E5"/>
</svg>
